<?xml version="1.0" standalone="no"?><!-- Generator: Gravit.io --><svg xmlns="http://www.w3.org/2000/svg" xmlns:xlink="http://www.w3.org/1999/xlink" style="isolation:isolate" viewBox="359.24350930266036 31.05264265940074 104.63558381394506 83.67562302385883" width="104.63558381394506" height="83.67562302385883"><path d=" M 430.304833846402 55.517131259329844 L 434.2760522749503 45.88715884829965 L 447.8772431145288 40.22840486581775 L 450.3513214866424 33.135975992734075" fill="rgba(0,0,0,0)" stroke-width="4.166666666666668" stroke="rgb(60,59,45)" stroke-linejoin="round" stroke-linecap="butt"/><path d=" M 417.68058132250235 56.620999906674584 L 417.0969144159135 46.01408917996555 L 424.6460798639201 41.91594041975134 L 427.64035997678957 36.8408533438583" fill="rgba(0,0,0,0)" stroke-width="4.166666666666668" stroke="rgb(60,59,45)" stroke-linejoin="round" stroke-linecap="butt"/><path d=" M 409.0910123929839 56.684465072507535 L 402.4553200948232 47.63815956806617 L 393.9292163311377 56.291193663417545 L 386.83678745805406 53.81711529130396" fill="rgba(0,0,0,0)" stroke-width="4.166666666666668" stroke="rgb(60,59,45)" stroke-linejoin="round" stroke-linecap="butt"/><path d=" M 433.42604429093734 67.62118204247362 L 441.55887664553285 74.12994400896845 L 456.20047096662313 72.50587362086782 L 461.79575978327205 77.5174955309279" fill="rgba(0,0,0,0)" stroke-width="4.166666666666668" stroke="rgb(60,59,45)" stroke-linejoin="round" stroke-linecap="butt"/><path d=" M 421.8421952485495 72.75973428419962 L 426.4605457495196 82.32624152939687 L 435.05011467903796 82.26277636356392 L 440.125201754931 85.25705647643338" fill="rgba(0,0,0,0)" stroke-width="4.166666666666668" stroke="rgb(60,59,45)" stroke-linejoin="round" stroke-linecap="butt"/><path d=" M 414.29302980054285 76.85788304441382 L 412.8593549099411 87.98499551187875 L 401.21204070172024 84.53397882408635 L 396.2004187916601 90.12926764073528" fill="rgba(0,0,0,0)" stroke-width="4.166666666666668" stroke="rgb(60,59,45)" stroke-linejoin="round" stroke-linecap="butt"/><path d=" M 367.57684263599367 45.874678434207354 C 367.57684263599367 45.874678434207354 376.8770088037668 73.59726185412026 395.03308497848246 68.9154461873172" fill="rgba(0,0,0,0)" stroke-width="2" stroke="rgb(23,23,23)" stroke-linejoin="miter" stroke-linecap="butt"/><path d=" M 383.18289485867047 106.39493234992621 C 383.18289485867047 106.39493234992621 377.9174122852786 77.63194544850151 396.0734884599942 72.95012978169846" fill="rgba(0,0,0,0)" stroke-width="2" stroke="rgb(23,23,23)" stroke-linejoin="miter" stroke-linecap="butt"/><path d=" M 407.72388958287735 61.29478415716579 C 411.0928503841857 60.42604725010345 414.52263230917373 62.45473549173835 415.3898086110138 65.81764426765511 L 415.3898086110138 65.81764426765511 C 416.2580253163354 69.18458772716627 414.23389196003563 72.61534659046998 410.8669485005245 73.48356329579157 L 399.18653949479074 76.4955313747682 C 395.8175786934824 77.36426828183055 392.3868198301787 75.34013492553078 391.5186031248571 71.97319146601961 L 391.5186031248571 71.97319146601961 C 390.65090662127625 68.60826534830565 392.6745197758353 65.17548914320477 396.04146323534644 64.30727243788317 L 407.72388958287735 61.29478415716579 Z " fill="rgb(80,1,1)" stroke-width="2.083333333333334" stroke="rgba(0,0,0,0)" stroke-linejoin="miter" stroke-linecap="butt"/><path d=" M 452.038857040576 56.36713924334278 C 455.1600674851113 68.47119002648655 411.2987496876734 81.93297012030686 411.2987496876734 81.93297012030686 C 409.07160434357496 82.50727284210137 405.18325913026854 74.90400641305614 403.62265390800087 68.85198102148425 C 402.0620486857332 62.799955629912375 401.7887799729924 54.26448768143257 404.0159253170909 53.690184959638074 C 404.0159253170909 53.690184959638074 448.9176465960406 44.263088460199015 452.038857040576 56.36713924334278 Z " fill="rgb(148,35,35)" stroke-width="2.083333333333334" stroke="rgba(0,0,0,0)" stroke-linejoin="miter" stroke-linecap="butt"/><path d=" M 452.1011221933696 58.502566835685 C 452.23081360910567 57.79570960075473 452.22300845680354 57.08127823954827 452.038857040576 56.36713924334278 C 451.8547056243484 55.6530002471373 451.516056417307 55.023881971414795 451.0607187118578 54.46788324130375 L 403.17104178834944 66.81695236510794 C 403.30086438679865 67.49561673653389 403.44838632484766 68.1761715194254 403.62265390800087 68.85198102148425 C 403.7969214911541 69.52779052354312 403.99689431593004 70.19482006117497 404.21144526986126 70.85163595948919 L 452.1011221933696 58.502566835685 Z " fill="rgb(113,14,14)" stroke-width="2.083333333333334" stroke="rgba(0,0,0,0)" stroke-linejoin="miter" stroke-linecap="butt"/></svg>