<?xml version="1.0" standalone="no"?><!-- Generator: Gravit.io --><svg xmlns="http://www.w3.org/2000/svg" xmlns:xlink="http://www.w3.org/1999/xlink" style="isolation:isolate" viewBox="-1.1094585736392073 0.7871884880706066 80.30225048061173 59.34228969052546" width="50.30225048061173" height="29.34228969052546"><path d=" M 65.61853263676913 25.25167708799971 L 69.58975106531744 15.621704676969514 L 83.19094190489595 9.962950694487617 L 85.66502027700952 2.8705218214039405" fill="rgba(0,0,0,0)" stroke-width="4.166666666666668" stroke="rgb(60,59,45)" stroke-linejoin="round" stroke-linecap="butt"/><path d=" M 52.99428011286947 26.35554573534445 L 52.410613206280615 15.748635008635418 L 59.959778654287234 11.650486248421203 L 62.9540587671567 6.575399172528165" fill="rgba(0,0,0,0)" stroke-width="4.166666666666668" stroke="rgb(60,59,45)" stroke-linejoin="round" stroke-linecap="butt"/><path d=" M 44.404711183351054 26.4190109011774 L 37.76901888519032 17.372705396736038 L 29.242915121504865 26.02573949208741 L 22.150486248421192 23.55166111997383" fill="rgba(0,0,0,0)" stroke-width="4.166666666666668" stroke="rgb(60,59,45)" stroke-linejoin="round" stroke-linecap="butt"/><path d=" M 68.7397430813045 37.355727871143486 L 76.87257543589996 43.86448983763832 L 91.51416975699026 42.24041944953768 L 97.10945857363919 47.252041359597776" fill="rgba(0,0,0,0)" stroke-width="4.166666666666668" stroke="rgb(60,59,45)" stroke-linejoin="round" stroke-linecap="butt"/><path d=" M 57.15589403891663 42.49428011286948 L 61.77424453988672 52.06078735806673 L 70.36381346940513 51.99732219223378 L 75.43890054529817 54.99160230510324" fill="rgba(0,0,0,0)" stroke-width="4.166666666666668" stroke="rgb(60,59,45)" stroke-linejoin="round" stroke-linecap="butt"/><path d=" M 49.606728590909995 46.59242887308368 L 48.173053700308216 57.719541340548616 L 36.52573949208739 54.268524652756206 L 31.514117582027296 59.863813469405144" fill="rgba(0,0,0,0)" stroke-width="4.166666666666668" stroke="rgb(60,59,45)" stroke-linejoin="round" stroke-linecap="butt"/><path d=" M 2.8905414263607927 15.60922426287722 C 2.8905414263607927 15.60922426287722 12.190707594133945 43.33180768279013 30.346783768849605 38.649992015987074" fill="rgba(0,0,0,0)" stroke-width="2" stroke="rgb(23,23,23)" stroke-linejoin="miter" stroke-linecap="butt"/><path d=" M 18.49659364903763 76.12947817859607 C 18.49659364903763 76.12947817859607 13.231111075645735 47.366491277171384 31.387187250361393 42.68467561036833" fill="rgba(0,0,0,0)" stroke-width="2" stroke="rgb(23,23,23)" stroke-linejoin="miter" stroke-linecap="butt"/><path d=" M 43.03758837324451 31.02932998583566 C 46.40654917455285 30.160593078773317 49.83633109954088 32.18928132040821 50.70350740138095 35.552190096324985 L 50.70350740138095 35.552190096324985 C 51.57172410670255 38.91913355583615 49.547590750402776 42.34989241913985 46.18064729089163 43.218109124461435 L 34.500238285157884 46.23007720343807 C 31.13127748384953 47.09881411050041 27.700518620545832 45.07468075420065 26.832301915224242 41.70773729468949 L 26.832301915224242 41.70773729468949 C 25.96460541164341 38.34281117697552 27.988218566202413 34.91003497187463 31.355162025713575 34.041818266553044 L 43.03758837324451 31.02932998583566 Z " fill="rgb(80,1,1)" stroke-width="2.083333333333334" stroke="rgba(0,0,0,0)" stroke-linejoin="miter" stroke-linecap="butt"/><path d=" M 87.3525558309431 26.101685072012643 C 90.47376627547847 38.20573585515642 46.612448478040534 51.66751594897673 46.612448478040534 51.66751594897673 C 44.38530313394208 52.24181867077124 40.496957920635694 44.638552241726 38.93635269836801 38.586526850154115 C 37.37574747610033 32.53450145858224 37.10247876335956 23.999033510102436 39.329624107458 23.42473078830794 C 39.329624107458 23.42473078830794 84.23134538640774 13.99763428886888 87.3525558309431 26.101685072012643 Z " fill="rgb(148,35,35)" stroke-width="2.083333333333334" stroke="rgba(0,0,0,0)" stroke-linejoin="miter" stroke-linecap="butt"/><path d=" M 87.41482098373673 28.237112664354868 C 87.54451239947278 27.5302554294246 87.5367072471707 26.815824068218134 87.3525558309431 26.101685072012643 C 87.16840441471552 25.387546075807165 86.82975520767417 24.75842780008466 86.37441750222494 24.20242906997362 L 38.4847405787166 36.551498193777796 C 38.6145631771658 37.23016256520376 38.76208511521479 37.91071734809526 38.93635269836801 38.586526850154115 C 39.110620281521236 39.262336352212984 39.31059310629718 39.92936588984483 39.525144060228385 40.58618178815905 L 87.41482098373673 28.237112664354868 Z " fill="rgb(113,14,14)" stroke-width="2.083333333333334" stroke="rgba(0,0,0,0)" stroke-linejoin="miter" stroke-linecap="butt"/></svg>