<?xml version="1.0" standalone="no"?><!-- Generator: Gravit.io --><svg xmlns="http://www.w3.org/2000/svg" xmlns:xlink="http://www.w3.org/1999/xlink" style="isolation:isolate"  viewBox="359.24350930266036 31.05264265940074 804.63558381394506 763.67562302385883" width="138" height="138"><circle vector-effect="non-scaling-stroke" cx="0" cy="0" r="1" fill="rgb(0,128,0)" transform="matrix(73,0,0,73.63020833333334,664,355.63020833333337)" stroke-width="1" stroke="rgba(0,0,0,0)"/><path d=" M 664.8333333333334 280.00000000000006 C 623.5702333333334 280.00000000000006 590 314.01883333333336 590 355.83333333333337 C 590 397.6478333333333 623.5702333333334 431.66666666666663 664.8333333333334 431.66666666666663 C 706.0964333333334 431.66666666666663 739.6666666666667 397.6478333333333 739.6666666666667 355.83333333333337 C 739.6666666666667 314.01883333333336 706.0964333333334 280.00000000000006 664.8333333333334 280.00000000000006 Z  M 664.8333333333334 295.1666666666667 C 697.8423166666668 295.1666666666667 724.7 322.38325000000003 724.7 355.83333333333337 C 724.7 389.28341666666665 697.8423166666668 416.5 664.8333333333334 416.5 C 631.82435 416.5 604.9666666666667 389.28341666666665 604.9666666666667 355.83333333333337 C 604.9666666666667 322.38325000000003 631.82435 295.1666666666667 664.8333333333334 295.1666666666667 Z  M 682.1385416666667 352.515625 M 617.5947916666667 345.40625 M 634.9 371 C 634.9 379.3416666666667 641.635 386.1666666666667 649.8666666666667 386.1666666666667 L 664.8333333333334 386.1666666666667 C 664.8333333333334 394.54298158333336 671.5341419833334 401.33333333333337 679.8000000000001 401.33333333333337 C 688.0658580166667 401.33333333333337 694.7666666666668 394.54298158333336 694.7666666666668 386.1666666666667 L 694.7666666666668 371 L 679.8000000000001 371 L 634.9 371 Z " fill-rule="evenodd" fill="rgb(0,0,0)" stroke-width="4.166666666666668" stroke="rgba(0,0,0,0)" stroke-linejoin="miter" stroke-linecap="butt"/><clipPath id="_clipPath_kCU4sCk797RNN9rts7uNK2QES5K7gSG2"><rect rx="14.805076566361379" ry="14.805076566361379" x="619.6251535461801" y="318.2122197374495" width="38" height="37.169412306266054" transform="matrix(0.009681069335438795,0.9999531373502071,-0.9999531373502071,0.009681069335438797,969.2237218495375,-305.0588543801873)" fill="rgb(255,255,255)" stroke-width="1" stroke="rgba(0,0,0,0)" stroke-linejoin="miter" stroke-linecap="square"/></clipPath><g clip-path="url(#_clipPath_kCU4sCk797RNN9rts7uNK2QES5K7gSG2)"><polygon points="601.5756115926495,356.69836160734474,602.1021837873334,314.1494459722338,638.6873395334784,335.87992868731203" fill="none" stroke-width="10" stroke="rgb(0,0,0)" stroke-linejoin="miter" stroke-linecap="square"/><polygon points="673.9604274815156,358.0390327502672,637.1315774524114,336.7241716075396,674.0052136947036,315.486882461532" fill="none" stroke-width="10" stroke="rgb(0,0,0)" stroke-linejoin="miter" stroke-linecap="square"/></g><clipPath id="_clipPath_l953XiZ6iFnZOeGYRhbRdppuwe2ZTDqx"><rect rx="14.805076566361379" ry="14.805076566361379" x="673.5855810276956" y="318.42943739939363" width="38" height="37.169412306266054" transform="matrix(0.009681069335438795,0.9999531373502071,-0.9999531373502071,0.009681069335438797,1022.8789621737835,-358.80163837038924)" fill="rgb(255,255,255)" stroke-width="1" stroke="rgba(0,0,0,0)" stroke-linejoin="miter" stroke-linecap="square"/></clipPath><g clip-path="url(#_clipPath_l953XiZ6iFnZOeGYRhbRdppuwe2ZTDqx)"><polygon points="655.536039074165,356.9155792692889,656.062611268849,314.366663634178,692.647767014994,336.0971463492562" fill="none" stroke-width="10" stroke="rgb(0,0,0)" stroke-linejoin="miter" stroke-linecap="square"/><polygon points="727.9208549630312,358.25625041221133,691.092004933927,336.9413892694837,727.9656411762192,315.7041001234761" fill="none" stroke-width="10" stroke="rgb(0,0,0)" stroke-linejoin="miter" stroke-linecap="square"/></g></svg>