<?xml version="1.0" standalone="no"?><!-- Generator: Gravit.io --><svg xmlns="http://www.w3.org/2000/svg" xmlns:xlink="http://www.w3.org/1999/xlink" style="isolation:isolate" viewBox="-0.3333333333332771 -0.33333333333331616 143.66666666666654 150.6666666666666" width="25.66666666666654" height="25.6666666666666"><circle vector-effect="non-scaling-stroke" cx="0" cy="0" r="1" fill="rgb(0,128,0)" transform="matrix(70.07349665924265,0,0,73.14473443223443,70.70007423904997,74.79821428571438)" stroke-width="1" stroke="rgba(0,0,0,0)"/><path d=" M 71.5 -0.33333333333331616 C 31.89110000000003 -0.33333333333331616 -0.3333333333332771 33.461200000000005 -0.3333333333332771 74.99999999999999 C -0.3333333333332771 116.53879999999998 31.89110000000003 150.3333333333333 71.5 150.3333333333333 C 111.10889999999996 150.3333333333333 143.33333333333326 116.53879999999998 143.33333333333326 74.99999999999999 C 143.33333333333326 33.461200000000005 111.10889999999996 -0.33333333333331616 71.5 -0.33333333333331616 Z  M 71.5 14.733333333333345 C 103.18568333333332 14.733333333333345 128.9666666666666 41.77046666666667 128.9666666666666 74.99999999999999 C 128.9666666666666 108.22953333333332 103.18568333333332 135.26666666666662 71.5 135.26666666666662 C 39.81431666666669 135.26666666666662 14.033333333333378 108.22953333333332 14.033333333333378 74.99999999999999 C 14.033333333333378 41.77046666666667 39.81431666666669 14.733333333333345 71.5 14.733333333333345 Z  M 88.11145833333332 71.70416666666665 M 26.15520833333337 64.64166666666667 M 42.76666666666669 90.06666666666665 C 42.76666666666669 98.35333333333331 49.23166666666668 105.13333333333331 57.13333333333334 105.13333333333331 L 71.5 105.13333333333331 C 71.5 113.45441979999998 77.93217935 120.19999999999996 85.86666666666665 120.19999999999996 C 93.80115398333331 120.19999999999996 100.2333333333333 113.45441979999998 100.2333333333333 105.13333333333331 L 100.2333333333333 90.06666666666665 L 85.86666666666665 90.06666666666665 L 42.76666666666669 90.06666666666665 Z " fill-rule="evenodd" fill="rgb(0,0,0)" stroke-width="4.166666666666668" stroke="rgba(0,0,0,0)" stroke-linejoin="miter" stroke-linecap="butt"/><clipPath id="_clipPath_ft9wSMcYjw6hsthNaor7nZZsNSY6Bh3q"><rect rx="14.805076566361379" ry="14.805076566361379" x="27.467815575607652" y="38.24938965178178" width="37.74933326632169" height="35.67943535963022" transform="matrix(0.009354672135133208,0.9999562440973325,-0.9999500306127341,0.010018854976817294,101.99526807504847,9.186704247834875)" fill="rgb(255,255,255)" stroke-width="1" stroke="rgba(0,0,0,0)" stroke-linejoin="miter" stroke-linecap="square"/></clipPath><g clip-path="url(#_clipPath_ft9wSMcYjw6hsthNaor7nZZsNSY6Bh3q)"><polygon points="10.778222560724657,75.85932479088603,11.283684956957984,33.59095145666595,46.402175216620435,55.17815626373272" fill="none" stroke-width="10" stroke="rgb(0,0,0)" stroke-linejoin="miter" stroke-linecap="square"/><polygon points="80.26119727809936,77.19115634385503,44.9087822167545,56.01683274712343,80.3041880528967,34.919569683397185" fill="none" stroke-width="10" stroke="rgb(0,0,0)" stroke-linejoin="miter" stroke-linecap="square"/></g><clipPath id="_clipPath_Azfy91IwUsbt8cqvCV0MBeKDaYxNDEbJ"><rect rx="14.805076566361379" ry="14.805076566361379" x="79.26501879283077" y="38.465175109361624" width="37.749333266321685" height="35.67943535963022" transform="matrix(0.009354672135133208,0.9999562440973325,-0.9999500306127341,0.010018854976817294,153.52370011357033,-42.39460900163158)" fill="rgb(255,255,255)" stroke-width="1" stroke="rgba(0,0,0,0)" stroke-linejoin="miter" stroke-linecap="square"/></clipPath><g clip-path="url(#_clipPath_Azfy91IwUsbt8cqvCV0MBeKDaYxNDEbJ)"><polygon points="62.57542577794777,76.0751102484657,63.0808881741811,33.80673691424562,98.19937843384355,55.39394172131239" fill="none" stroke-width="10" stroke="rgb(0,0,0)" stroke-linejoin="miter" stroke-linecap="square"/><polygon points="132.05840049532247,77.40694180143475,96.70598543397762,56.23261820470316,132.10139127011982,35.13535514097691" fill="none" stroke-width="10" stroke="rgb(0,0,0)" stroke-linejoin="miter" stroke-linecap="square"/></g></svg>